# xmcd
#
# Track frame offsets:
#	150
#	13790
#	27747
#	47588
#	61179
#	73314
#	86393
#	98634
#	110990
#	124389
#	138590
#	151312
#	177211
#	190552
#
# Disc length: 2724 seconds
#
# Revision: 0
# Processed by: cddbd v1.5.2PL0 Copyright (c) Steve Scherf et al.
# Submitted via: EZCDAudioConverter 1.1.0.1
#
DISCID=c30aa20e
DTITLE=Various Artist - Blues Deluxe
DYEAR=2012
DGENRE=Blues
TTITLE0=Slim Harpo - I´m a King Bee
TTITLE1=Howlin´ Wolf - Smokestack Lightnin´
TTITLE2=B.B. King and Ray Charles - Sinner´s Prayer
TTITLE3=Albert King - Bad Luck Blues
TTITLE4=Muddy Waters - I can´t be satisfied
TTITLE5=Arthur "Big Boy" Crudup - That´s all right
TTITLE6=Elmore James - The sky is crying
TTITLE7=Little Walter - Juke
TTITLE8=Robert Johnson - Sweet home Chicago
TTITLE9=John Lee Hooker - Boogie Chillen
TTITLE10=Lightnin´ Hopkins - T-Model Blues
TTITLE11=Son House - Preachin´ Blues
TTITLE12=Mississippi John Hurt - Stack O´Lee Blues
TTITLE13=Leadbelly - Where did you sleep last night ?
EXTD=
EXTT0=
EXTT1=
EXTT2=
EXTT3=
EXTT4=
EXTT5=
EXTT6=
EXTT7=
EXTT8=
EXTT9=
EXTT10=
EXTT11=
EXTT12=
EXTT13=
PLAYORDER=
